<svg height="256pt" preserveAspectRatio="xMidYMid meet" viewBox="0 0 256 256" width="256pt" xmlns="http://www.w3.org/2000/svg"><g transform="matrix(.1 0 0 -.1 0 256)"><path d="m0 1280v-1280h1280 1280v1280 1280h-1280-1280zm1830 856c0-7-41-189-46-205-3-11-8-11-16-3s-6 20 6 47c22 46 14 87-26 120-32 27-85 34-106 13-8-8-15-8-28 3-16 13-15 14 12 19 41 7 204 12 204 6zm-96-57c20-16 26-29 26-59s-6-43-26-59c-79-62-170 43-99 114 30 30 64 32 99 4zm-316-276c47-23 61-37 82-78 24-47 25-59 28-247 4-235-6-288-68-351l-39-38 60-210c32-115 59-216 59-224 0-12-17-15-83-15h-84l-54 213-55 212-32 3-32 3v-215-216h-85-85v594c0 558 1 595 18 600 9 3 84 3 166 1 139-3 152-5 204-32z"/><path d="m1636 2058c-32-46-6-98 49-98 37 0 65 28 65 66 0 51-84 75-114 32z"/><path d="m1200 1456v-236h58c49 0 62 4 82 25 21 23 24 36 28 154 5 153-3 232-27 262-14 18-32 23-80 27l-61 4z"/></g></svg>